<svg xmlns="http://www.w3.org/2000/svg" xmlns:xlink="http://www.w3.org/1999/xlink" viewBox="0 0 51 65" fill="#fff" fill-rule="evenodd" stroke="#000" stroke-linecap="round" stroke-linejoin="round"><use xlink:href="#D" x=".5" y=".5"/><defs><filter id="A" x="-27.5%" y="-32.5%" width="160%" height="160%"><feGaussianBlur in="SourceAlpha" stdDeviation="2"/><feOffset dx="1" dy="-1" result="B"/><feFlood flood-color="#000" flood-opacity=".2"/><feComposite in2="B" operator="in" result="C"/><feMerge><feMergeNode in="C"/><feMergeNode in="SourceGraphic"/></feMerge></filter><filter id="B" x="-6%" y="-4.6875%" width="116%" height="112.5%"><feGaussianBlur in="SourceAlpha" stdDeviation="1"/><feOffset dx="2" dy="2" result="B"/><feFlood flood-color="#000" flood-opacity=".2"/><feComposite in2="B" operator="in" result="C"/><feMerge><feMergeNode in="C"/><feMergeNode in="SourceGraphic"/></feMerge></filter><path id="C" d="M20 20L0 0h15a4.99 4.99 0 0 1 5 5z"/></defs><symbol id="D" overflow="visible"><g transform="matrix(-1 0 0 -1 50 20)"><use xlink:href="#C" fill="#ffeb3b" stroke="none" filter="url(#A)"/><defs/><use xlink:href="#C" fill="#ffe082" stroke="none" filter="url(#A)"/><defs/></g><path d="M50 20L30 0H5a4.99 4.99 0 0 0-5 5v54a4.99 4.99 0 0 0 5 5h40a4.99 4.99 0 0 0 5-5z" fill="#ffca28" stroke="none" filter="url(#B)"/><defs/><g transform="matrix(-1 0 0 -1 50 20)"><use xlink:href="#C" fill="#ffd54f" stroke="none" filter="url(#A)"/><defs/></g><g stroke="#fff" stroke-width="2"><path d="M10.5 43.859c0 3.125 2.23 5.641 5 5.641h19.565c2.77 0 5-2.516 5-5.641V33.141H10.5z" fill="none"/><path d="M40.065 33.141H10.5c0-3.125 2.23-5.641 5-5.641h19.565c2.77 0 5 2.516 5 5.641z"/></g></symbol></svg>